<svg xmlns="http://www.w3.org/2000/svg" viewBox="0 0 42 42"><defs><style>.cls-1{fill:none;stroke:#000;stroke-miterlimit:10;}.cls-2{fill:#0069ff;}</style></defs><title>digitalocean-product-icon-volumes-block-storage</title><g id="Layer_2" data-name="Layer 2"><rect class="cls-1" x="-255" y="-394" width="1280" height="720"/></g><g id="Layer_1" data-name="Layer 1"><path class="cls-2" d="M21,22.23a1.22,1.22,0,0,1-.38-.07,1,1,0,0,1-.31-.22,1,1,0,0,1-.21-.31.9.9,0,0,1-.08-.36,1,1,0,0,1,.29-.69,1,1,0,0,1,1.05-.21,1.13,1.13,0,0,1,.31.21.94.94,0,0,1,.29.69.76.76,0,0,1-.08.36.81.81,0,0,1-.21.31,1,1,0,0,1-.31.22A1.1,1.1,0,0,1,21,22.23Z"/><path class="cls-2" d="M20,17.22a1,1,0,0,1,1-1h0a1,1,0,0,1,1,1h0a1,1,0,0,1-1,1h0A1,1,0,0,1,20,17.22Zm0-4a1,1,0,0,1,1-1h0a1,1,0,0,1,1,1h0a1,1,0,0,1-1,1h0A1,1,0,0,1,20,13.18Zm0-4a1,1,0,0,1,1-1h0a1,1,0,0,1,1,1h0a1,1,0,0,1-1,1h0A1,1,0,0,1,20,9.14Z"/><path class="cls-2" d="M21,6.07A1,1,0,0,1,20.61,6a.81.81,0,0,1-.31-.21A1,1,0,0,1,20,5.1a1,1,0,0,1,.29-.68,1,1,0,0,1,1.36,0A.94.94,0,0,1,22,5.1a.92.92,0,0,1-.29.68.81.81,0,0,1-.31.21A.9.9,0,0,1,21,6.07Z"/><path class="cls-2" d="M7.91,30.06A.86.86,0,0,1,7.55,30a.93.93,0,0,1-.32-.21A1,1,0,0,1,7,29.09a1.1,1.1,0,0,1,.28-.69,1.07,1.07,0,0,1,.32-.2,1,1,0,0,1,.74,0,1,1,0,0,1,.31.2,1.11,1.11,0,0,1,.21.32.91.91,0,0,1,.08.37,1,1,0,0,1-.29.68A1,1,0,0,1,7.91,30.06Z"/><path class="cls-2" d="M10.34,27.59a1,1,0,0,1,.31-1.34h0a1,1,0,0,1,1.34.31h0a1,1,0,0,1-.31,1.32h0a.93.93,0,0,1-.52.16h0A1,1,0,0,1,10.34,27.59Zm3.25-2a1,1,0,0,1,.31-1.33h0a1,1,0,0,1,1.33.31h0a1,1,0,0,1-.3,1.33h0a1,1,0,0,1-.51.14h0A1,1,0,0,1,13.59,25.56Zm3.26-2a1,1,0,0,1,.3-1.34h0a1,1,0,0,1,1.34.31h0a1,1,0,0,1-.31,1.33h0a.88.88,0,0,1-.51.16h0A1,1,0,0,1,16.85,23.54Z"/><path class="cls-2" d="M20.92,22a1.11,1.11,0,0,1-.37-.07,1.14,1.14,0,0,1-.32-.22A.93.93,0,0,1,20,21a1,1,0,0,1,.28-.69,1.36,1.36,0,0,1,.32-.21,1,1,0,0,1,1.05.21,1,1,0,0,1,.29.69.94.94,0,0,1-.29.67,1.1,1.1,0,0,1-.31.22A1.21,1.21,0,0,1,20.92,22Z"/><path class="cls-2" d="M30.22,27.85a1,1,0,0,1-.33-1.33h0a1,1,0,0,1,1.33-.33h0a1,1,0,0,1,.32,1.33h0a1,1,0,0,1-.83.47h0A1,1,0,0,1,30.22,27.85Zm-3.28-2a1,1,0,0,1-.31-1.32h0A1,1,0,0,1,28,24.19h0a1,1,0,0,1,.32,1.33h0a1,1,0,0,1-.83.47h0A1.07,1.07,0,0,1,26.94,25.84Zm-3.26-2a1,1,0,0,1-.31-1.34h0a1,1,0,0,1,1.32-.31h0A1,1,0,0,1,25,23.52h0a1,1,0,0,1-.82.45h0A1,1,0,0,1,23.68,23.84Z"/><path class="cls-2" d="M34,30a1,1,0,0,1-.38-.08.72.72,0,0,1-.31-.21,1,1,0,0,1-.21-.31A1,1,0,0,1,33,29a1,1,0,0,1,.27-.69,1,1,0,0,1,.31-.21,1,1,0,0,1,1,.21A.94.94,0,0,1,35,29a.73.73,0,0,1-.08.36.72.72,0,0,1-.21.31A.9.9,0,0,1,34,30Z"/><path class="cls-2" d="M20.92,38.24,7,29.56V12.39l14-8.68,14,8.61V29.56Zm-12-9.75L20,35.41V21.77L8.88,14.93ZM22,21.84v13.5L33,28.49V15ZM9.52,13.06l11.53,7.07,11.42-7.07L20.92,6Z"/></g></svg>