<svg width="29" height="32" viewBox="0 0 29 32" fill="none" xmlns="http://www.w3.org/2000/svg">
<path d="M30.1037 8.875C30.5966 8.875 30.9999 8.47422 30.9999 7.98438V5.01562C30.9999 4.52578 30.5966 4.125 30.1037 4.125H28.6102V0.5625C28.6102 -1.4043 27.0045 -3 25.0255 -3H1.12808C-0.850933 -3 -2.45654 -1.4043 -2.45654 0.5625V31.4375C-2.45654 33.4043 -0.850933 35 1.12808 35H25.0255C27.0045 35 28.6102 33.4043 28.6102 31.4375V27.875H30.1037C30.5966 27.875 30.9999 27.4742 30.9999 26.9844V24.0156C30.9999 23.5258 30.5966 23.125 30.1037 23.125H28.6102V18.375H30.1037C30.5966 18.375 30.9999 17.9742 30.9999 17.4844V14.5156C30.9999 14.0258 30.5966 13.625 30.1037 13.625H28.6102V8.875H30.1037ZM13.0768 6.5C15.713 6.5 17.8563 8.63008 17.8563 11.25C17.8563 13.8699 15.713 16 13.0768 16C10.4406 16 8.29731 13.8699 8.29731 11.25C8.29731 8.63008 10.4406 6.5 13.0768 6.5ZM21.4409 24.075C21.4409 24.8617 20.6941 25.5 19.7681 25.5H6.38552C5.45949 25.5 4.71269 24.8617 4.71269 24.075V22.65C4.71269 20.2898 6.96055 18.375 9.73116 18.375H10.1046C11.0231 18.7535 12.0238 18.9688 13.0768 18.9688C14.1298 18.9688 15.138 18.7535 16.0491 18.375H16.4224C19.1931 18.375 21.4409 20.2898 21.4409 22.65V24.075Z" fill="#316099"/>
</svg>
