<svg width="1366" height="250" viewBox="0 0 1366 250" fill="none" xmlns="http://www.w3.org/2000/svg">
<mask id="mask0" mask-type="alpha" maskUnits="userSpaceOnUse" x="0" y="0" width="1366" height="250">
<rect width="1366" height="250" fill="#C4C4C4"/>
</mask>
<g mask="url(#mask0)">
<rect y="-111" width="1366" height="471" fill="url(#paint0_linear)"/>
<path d="M-72 97C-3 77.5 148.7 46.3 203.5 77.5C258.3 108.7 320.333 231.167 344.5 288.5L827 275C751.833 232.667 600.1 133.9 594.5 77.5C588.9 21.1 684.5 -60 733 -93.5L967 -69.5C970.167 -45.1667 986.1 10.9 1024.5 40.5C1062.9 70.1 1306.5 -9.16667 1423.5 -52.5L1438 344C1393.5 279.333 1290.1 148.6 1232.5 143C1174.9 137.4 1002.83 215.667 924 255.5" stroke="white" stroke-opacity="0.15" stroke-width="15"/>
<circle cx="88" cy="23" r="9" fill="white" fill-opacity="0.2"/>
<circle cx="480" cy="115" r="9" fill="white" fill-opacity="0.2"/>
<circle cx="602" cy="250" r="9" fill="white" fill-opacity="0.2"/>
<circle cx="845" cy="35" r="9" fill="white" fill-opacity="0.2"/>
<circle cx="1193" cy="200" r="9" fill="white" fill-opacity="0.2"/>
<circle cx="1366" cy="116" r="9" fill="white" fill-opacity="0.2"/>
<circle cx="240" cy="250" r="17" stroke="white" stroke-opacity="0.6" stroke-width="8"/>
<circle cx="11" cy="170" r="17" stroke="white" stroke-opacity="0.6" stroke-width="8"/>
<circle cx="382" r="17" stroke="white" stroke-opacity="0.6" stroke-width="8"/>
<circle cx="877" cy="221" r="17" stroke="white" stroke-opacity="0.6" stroke-width="8"/>
<circle cx="1267" cy="71" r="17" stroke="white" stroke-opacity="0.6" stroke-width="8"/>
</g>
<path d="M594.219 92.8164C593.904 96.1536 592.672 98.7604 590.523 100.637C588.375 102.499 585.518 103.43 581.951 103.43C579.459 103.43 577.26 102.842 575.355 101.668C573.465 100.479 572.004 98.7962 570.973 96.6191C569.941 94.4421 569.404 91.9141 569.361 89.0352V86.1133C569.361 83.1628 569.884 80.5632 570.93 78.3145C571.975 76.0658 573.472 74.3327 575.42 73.1152C577.382 71.8978 579.645 71.2891 582.209 71.2891C585.661 71.2891 588.439 72.2272 590.545 74.1035C592.65 75.9798 593.875 78.6296 594.219 82.0527H588.805C588.547 79.804 587.888 78.1855 586.828 77.1973C585.782 76.1947 584.243 75.6934 582.209 75.6934C579.846 75.6934 578.027 76.5599 576.752 78.293C575.491 80.0117 574.847 82.5397 574.818 85.877V88.6484C574.818 92.0286 575.42 94.6068 576.623 96.3828C577.84 98.1589 579.616 99.0469 581.951 99.0469C584.085 99.0469 585.689 98.5671 586.764 97.6074C587.838 96.6478 588.518 95.0508 588.805 92.8164H594.219ZM599.373 91.1621C599.373 88.8848 599.824 86.8366 600.727 85.0176C601.629 83.1842 602.897 81.7806 604.529 80.8066C606.162 79.8184 608.039 79.3242 610.158 79.3242C613.295 79.3242 615.837 80.334 617.785 82.3535C619.748 84.373 620.807 87.0514 620.965 90.3887L620.986 91.6133C620.986 93.9049 620.542 95.9531 619.654 97.7578C618.781 99.5625 617.52 100.959 615.873 101.947C614.24 102.936 612.35 103.43 610.201 103.43C606.921 103.43 604.293 102.341 602.317 100.164C600.354 97.9727 599.373 95.0579 599.373 91.4199V91.1621ZM604.594 91.6133C604.594 94.0052 605.088 95.8815 606.076 97.2422C607.065 98.5885 608.44 99.2617 610.201 99.2617C611.963 99.2617 613.331 98.5742 614.305 97.1992C615.293 95.8242 615.787 93.8118 615.787 91.1621C615.787 88.8132 615.279 86.9512 614.262 85.5762C613.259 84.2012 611.891 83.5137 610.158 83.5137C608.454 83.5137 607.1 84.194 606.098 85.5547C605.095 86.901 604.594 88.9206 604.594 91.6133ZM632.006 79.7539L632.157 82.4395C633.875 80.3626 636.131 79.3242 638.924 79.3242C643.765 79.3242 646.229 82.0957 646.315 87.6387V103H641.094V87.9395C641.094 86.4642 640.772 85.3757 640.127 84.6738C639.497 83.9577 638.459 83.5996 637.012 83.5996C634.907 83.5996 633.338 84.5521 632.307 86.457V103H627.086V79.7539H632.006ZM659.956 74.1035V79.7539H664.059V83.6211H659.956V96.5977C659.956 97.4857 660.128 98.1302 660.471 98.5312C660.829 98.918 661.46 99.1113 662.362 99.1113C662.964 99.1113 663.572 99.0397 664.188 98.8965V102.936C662.999 103.265 661.853 103.43 660.751 103.43C656.74 103.43 654.735 101.217 654.735 96.791V83.6211H650.911V79.7539H654.735V74.1035H659.956ZM683.716 103C683.487 102.556 683.286 101.833 683.114 100.83C681.453 102.563 679.419 103.43 677.013 103.43C674.678 103.43 672.773 102.764 671.298 101.432C669.822 100.1 669.085 98.4525 669.085 96.4902C669.085 94.0124 670.002 92.1146 671.835 90.7969C673.683 89.4648 676.318 88.7988 679.741 88.7988H682.942V87.2734C682.942 86.0703 682.606 85.1107 681.933 84.3945C681.259 83.6641 680.235 83.2988 678.86 83.2988C677.671 83.2988 676.697 83.5996 675.938 84.2012C675.179 84.7884 674.8 85.5404 674.8 86.457H669.579C669.579 85.1823 670.002 83.9935 670.847 82.8906C671.692 81.7734 672.837 80.8997 674.284 80.2695C675.745 79.6393 677.371 79.3242 679.161 79.3242C681.882 79.3242 684.052 80.0117 685.671 81.3867C687.289 82.7474 688.12 84.6667 688.163 87.1445V97.6289C688.163 99.7201 688.457 101.389 689.044 102.635V103H683.716ZM677.979 99.2402C679.011 99.2402 679.977 98.9896 680.88 98.4883C681.796 97.987 682.484 97.3138 682.942 96.4688V92.0859H680.128C678.194 92.0859 676.74 92.4225 675.766 93.0957C674.793 93.7689 674.306 94.7214 674.306 95.9531C674.306 96.9557 674.635 97.7578 675.294 98.3594C675.967 98.9466 676.862 99.2402 677.979 99.2402ZM704.941 99.2617C706.244 99.2617 707.325 98.8822 708.185 98.123C709.044 97.3639 709.502 96.4258 709.56 95.3086H714.48C714.422 96.7552 713.971 98.1087 713.126 99.3691C712.281 100.615 711.135 101.604 709.689 102.334C708.242 103.064 706.681 103.43 705.005 103.43C701.754 103.43 699.176 102.377 697.271 100.271C695.366 98.166 694.413 95.2585 694.413 91.5488V91.0117C694.413 87.474 695.359 84.6452 697.249 82.5254C699.14 80.3913 701.718 79.3242 704.984 79.3242C707.748 79.3242 709.997 80.1335 711.73 81.752C713.477 83.3561 714.394 85.4688 714.48 88.0898H709.56C709.502 86.7578 709.044 85.6621 708.185 84.8027C707.34 83.9434 706.258 83.5137 704.941 83.5137C703.25 83.5137 701.947 84.1296 701.03 85.3613C700.114 86.5788 699.648 88.4336 699.634 90.9258V91.7637C699.634 94.2845 700.085 96.168 700.987 97.4141C701.904 98.6458 703.222 99.2617 704.941 99.2617ZM726.724 74.1035V79.7539H730.827V83.6211H726.724V96.5977C726.724 97.4857 726.896 98.1302 727.24 98.5312C727.598 98.918 728.228 99.1113 729.13 99.1113C729.732 99.1113 730.341 99.0397 730.956 98.8965V102.936C729.768 103.265 728.622 103.43 727.519 103.43C723.508 103.43 721.503 101.217 721.503 96.791V83.6211H717.679V79.7539H721.503V74.1035H726.724ZM772.697 71.7188V92.623C772.697 95.946 771.63 98.5814 769.496 100.529C767.376 102.463 764.547 103.43 761.01 103.43C757.429 103.43 754.586 102.477 752.48 100.572C750.375 98.653 749.322 95.9961 749.322 92.6016V71.7188H754.736V92.6445C754.736 94.7357 755.266 96.3327 756.326 97.4355C757.386 98.5384 758.947 99.0898 761.01 99.0898C765.192 99.0898 767.283 96.8841 767.283 92.4727V71.7188H772.697ZM792.805 96.6836C792.805 95.7526 792.418 95.0436 791.645 94.5566C790.885 94.0697 789.618 93.64 787.842 93.2676C786.066 92.8952 784.583 92.4225 783.395 91.8496C780.788 90.5892 779.484 88.763 779.484 86.3711C779.484 84.3659 780.33 82.6901 782.02 81.3438C783.71 79.9974 785.858 79.3242 788.465 79.3242C791.244 79.3242 793.485 80.0117 795.19 81.3867C796.908 82.7617 797.768 84.5449 797.768 86.7363H792.547C792.547 85.7337 792.175 84.903 791.43 84.2441C790.685 83.571 789.697 83.2344 788.465 83.2344C787.319 83.2344 786.381 83.4993 785.65 84.0293C784.934 84.5592 784.576 85.2682 784.576 86.1562C784.576 86.9583 784.913 87.5814 785.586 88.0254C786.259 88.4694 787.62 88.9206 789.668 89.3789C791.716 89.8229 793.32 90.36 794.481 90.9902C795.655 91.6061 796.522 92.3509 797.08 93.2246C797.653 94.0983 797.94 95.1582 797.94 96.4043C797.94 98.4954 797.073 100.193 795.34 101.496C793.607 102.785 791.337 103.43 788.529 103.43C786.624 103.43 784.927 103.086 783.438 102.398C781.948 101.711 780.788 100.766 779.957 99.5625C779.126 98.3594 778.711 97.0632 778.711 95.6738H783.781C783.853 96.9056 784.318 97.8581 785.178 98.5312C786.037 99.1901 787.176 99.5195 788.594 99.5195C789.969 99.5195 791.014 99.2617 791.731 98.7461C792.447 98.2161 792.805 97.5286 792.805 96.6836Z" fill="white"/>
<path d="M301.79 161.467H308.529V163H299.905V148.781H301.79V161.467ZM310.705 157.619C310.705 156.584 310.907 155.653 311.311 154.826C311.721 153.999 312.287 153.361 313.01 152.912C313.739 152.463 314.569 152.238 315.5 152.238C316.939 152.238 318.101 152.736 318.987 153.732C319.879 154.729 320.325 156.053 320.325 157.707V157.834C320.325 158.863 320.126 159.787 319.729 160.607C319.338 161.421 318.775 162.056 318.039 162.512C317.31 162.967 316.47 163.195 315.52 163.195C314.088 163.195 312.926 162.697 312.034 161.701C311.148 160.705 310.705 159.387 310.705 157.746V157.619ZM312.522 157.834C312.522 159.006 312.792 159.947 313.332 160.656C313.879 161.366 314.608 161.721 315.52 161.721C316.438 161.721 317.167 161.363 317.707 160.646C318.248 159.924 318.518 158.915 318.518 157.619C318.518 156.46 318.241 155.523 317.688 154.807C317.141 154.084 316.412 153.723 315.5 153.723C314.608 153.723 313.889 154.077 313.342 154.787C312.795 155.497 312.522 156.512 312.522 157.834ZM328.498 154.055C328.224 154.009 327.928 153.986 327.609 153.986C326.424 153.986 325.62 154.491 325.197 155.5V163H323.39V152.434H325.148L325.177 153.654C325.77 152.71 326.61 152.238 327.697 152.238C328.048 152.238 328.315 152.284 328.498 152.375V154.055ZM335.157 163.195C333.725 163.195 332.559 162.727 331.661 161.789C330.762 160.845 330.313 159.585 330.313 158.01V157.678C330.313 156.63 330.512 155.695 330.909 154.875C331.313 154.048 331.873 153.404 332.589 152.941C333.311 152.473 334.093 152.238 334.932 152.238C336.306 152.238 337.374 152.691 338.136 153.596C338.897 154.501 339.278 155.796 339.278 157.482V158.234H332.12C332.146 159.276 332.449 160.119 333.028 160.764C333.614 161.402 334.356 161.721 335.255 161.721C335.893 161.721 336.433 161.59 336.876 161.33C337.318 161.07 337.706 160.725 338.038 160.295L339.141 161.154C338.256 162.515 336.928 163.195 335.157 163.195ZM334.932 153.723C334.203 153.723 333.591 153.99 333.096 154.523C332.602 155.051 332.296 155.793 332.179 156.75H337.471V156.613C337.419 155.695 337.172 154.986 336.729 154.484C336.287 153.977 335.688 153.723 334.932 153.723ZM343.877 152.434L343.926 153.605C344.701 152.694 345.745 152.238 347.061 152.238C348.538 152.238 349.544 152.805 350.078 153.938C350.43 153.43 350.885 153.02 351.445 152.707C352.012 152.395 352.679 152.238 353.447 152.238C355.765 152.238 356.943 153.465 356.982 155.92V163H355.176V156.027C355.176 155.272 355.003 154.709 354.658 154.338C354.313 153.96 353.734 153.771 352.92 153.771C352.249 153.771 351.693 153.973 351.25 154.377C350.807 154.774 350.55 155.311 350.479 155.988V163H348.662V156.076C348.662 154.54 347.91 153.771 346.406 153.771C345.221 153.771 344.411 154.276 343.975 155.285V163H342.168V152.434H343.877ZM368.241 163H366.434V152.434H368.241V163ZM366.287 149.631C366.287 149.338 366.375 149.09 366.551 148.889C366.733 148.687 367 148.586 367.352 148.586C367.704 148.586 367.97 148.687 368.153 148.889C368.335 149.09 368.426 149.338 368.426 149.631C368.426 149.924 368.335 150.168 368.153 150.363C367.97 150.559 367.704 150.656 367.352 150.656C367 150.656 366.733 150.559 366.551 150.363C366.375 150.168 366.287 149.924 366.287 149.631ZM380.867 157.834C380.867 159.442 380.499 160.738 379.763 161.721C379.028 162.704 378.031 163.195 376.775 163.195C375.492 163.195 374.483 162.788 373.748 161.975V167.062H371.941V152.434H373.591L373.679 153.605C374.415 152.694 375.437 152.238 376.746 152.238C378.015 152.238 379.018 152.717 379.754 153.674C380.496 154.631 380.867 155.962 380.867 157.668V157.834ZM379.06 157.629C379.06 156.438 378.806 155.497 378.298 154.807C377.791 154.117 377.094 153.771 376.209 153.771C375.115 153.771 374.295 154.257 373.748 155.227V160.275C374.288 161.239 375.115 161.721 376.228 161.721C377.094 161.721 377.781 161.379 378.289 160.695C378.803 160.005 379.06 158.983 379.06 157.629ZM390.124 160.197C390.124 159.709 389.938 159.331 389.567 159.064C389.203 158.791 388.561 158.557 387.643 158.361C386.732 158.166 386.006 157.932 385.466 157.658C384.932 157.385 384.535 157.059 384.274 156.682C384.02 156.304 383.893 155.855 383.893 155.334C383.893 154.468 384.258 153.736 384.987 153.137C385.723 152.538 386.66 152.238 387.8 152.238C388.998 152.238 389.968 152.548 390.71 153.166C391.458 153.785 391.833 154.576 391.833 155.539H390.016C390.016 155.044 389.805 154.618 389.382 154.26C388.965 153.902 388.438 153.723 387.8 153.723C387.142 153.723 386.628 153.866 386.257 154.152C385.886 154.439 385.7 154.813 385.7 155.275C385.7 155.712 385.873 156.04 386.218 156.262C386.563 156.483 387.184 156.695 388.083 156.896C388.988 157.098 389.72 157.339 390.28 157.619C390.84 157.899 391.253 158.238 391.52 158.635C391.794 159.025 391.93 159.504 391.93 160.07C391.93 161.014 391.553 161.773 390.798 162.346C390.042 162.912 389.063 163.195 387.858 163.195C387.012 163.195 386.263 163.046 385.612 162.746C384.961 162.447 384.45 162.03 384.079 161.496C383.714 160.956 383.532 160.373 383.532 159.748H385.339C385.371 160.354 385.612 160.835 386.061 161.193C386.517 161.545 387.116 161.721 387.858 161.721C388.542 161.721 389.089 161.584 389.499 161.311C389.915 161.031 390.124 160.66 390.124 160.197ZM401.607 161.955C400.904 162.782 399.872 163.195 398.512 163.195C397.385 163.195 396.526 162.87 395.934 162.219C395.348 161.561 395.051 160.591 395.045 159.309V152.434H396.852V159.26C396.852 160.861 397.503 161.662 398.805 161.662C400.185 161.662 401.103 161.148 401.559 160.119V152.434H403.365V163H401.646L401.607 161.955ZM408.618 152.434L408.667 153.605C409.442 152.694 410.487 152.238 411.802 152.238C413.28 152.238 414.286 152.805 414.82 153.938C415.171 153.43 415.627 153.02 416.187 152.707C416.753 152.395 417.42 152.238 418.189 152.238C420.506 152.238 421.685 153.465 421.724 155.92V163H419.917V156.027C419.917 155.272 419.745 154.709 419.4 154.338C419.055 153.96 418.475 153.771 417.661 153.771C416.991 153.771 416.434 153.973 415.991 154.377C415.549 154.774 415.292 155.311 415.22 155.988V163H413.404V156.076C413.404 154.54 412.652 153.771 411.148 153.771C409.963 153.771 409.152 154.276 408.716 155.285V163H406.909V152.434H408.618ZM430.58 157.629C430.58 156.008 430.964 154.706 431.732 153.723C432.5 152.733 433.506 152.238 434.75 152.238C435.987 152.238 436.966 152.661 437.689 153.508V148H439.496V163H437.836L437.748 161.867C437.025 162.753 436.019 163.195 434.73 163.195C433.506 163.195 432.507 162.694 431.732 161.691C430.964 160.689 430.58 159.38 430.58 157.766V157.629ZM432.386 157.834C432.386 159.032 432.634 159.969 433.129 160.646C433.623 161.324 434.307 161.662 435.179 161.662C436.325 161.662 437.162 161.148 437.689 160.119V155.266C437.149 154.27 436.319 153.771 435.199 153.771C434.313 153.771 433.623 154.113 433.129 154.797C432.634 155.48 432.386 156.493 432.386 157.834ZM442.63 157.619C442.63 156.584 442.831 155.653 443.235 154.826C443.645 153.999 444.212 153.361 444.934 152.912C445.664 152.463 446.494 152.238 447.425 152.238C448.863 152.238 450.026 152.736 450.911 153.732C451.803 154.729 452.249 156.053 452.249 157.707V157.834C452.249 158.863 452.05 159.787 451.653 160.607C451.262 161.421 450.699 162.056 449.964 162.512C449.234 162.967 448.395 163.195 447.444 163.195C446.012 163.195 444.85 162.697 443.958 161.701C443.072 160.705 442.63 159.387 442.63 157.746V157.619ZM444.446 157.834C444.446 159.006 444.716 159.947 445.257 160.656C445.803 161.366 446.533 161.721 447.444 161.721C448.362 161.721 449.091 161.363 449.632 160.646C450.172 159.924 450.442 158.915 450.442 157.619C450.442 156.46 450.165 155.523 449.612 154.807C449.065 154.084 448.336 153.723 447.425 153.723C446.533 153.723 445.813 154.077 445.266 154.787C444.72 155.497 444.446 156.512 444.446 157.834ZM457.277 163H455.471V148H457.277V163ZM460.499 157.619C460.499 156.584 460.701 155.653 461.105 154.826C461.515 153.999 462.081 153.361 462.804 152.912C463.533 152.463 464.363 152.238 465.294 152.238C466.733 152.238 467.895 152.736 468.78 153.732C469.672 154.729 470.118 156.053 470.118 157.707V157.834C470.118 158.863 469.92 159.787 469.523 160.607C469.132 161.421 468.569 162.056 467.833 162.512C467.104 162.967 466.264 163.195 465.314 163.195C463.881 163.195 462.719 162.697 461.827 161.701C460.942 160.705 460.499 159.387 460.499 157.746V157.619ZM462.316 157.834C462.316 159.006 462.586 159.947 463.126 160.656C463.673 161.366 464.402 161.721 465.314 161.721C466.232 161.721 466.961 161.363 467.501 160.646C468.042 159.924 468.312 158.915 468.312 157.619C468.312 156.46 468.035 155.523 467.482 154.807C466.935 154.084 466.206 153.723 465.294 153.723C464.402 153.723 463.683 154.077 463.136 154.787C462.589 155.497 462.316 156.512 462.316 157.834ZM478.291 154.055C478.018 154.009 477.722 153.986 477.403 153.986C476.218 153.986 475.414 154.491 474.991 155.5V163H473.184V152.434H474.942L474.971 153.654C475.564 152.71 476.403 152.238 477.491 152.238C477.842 152.238 478.109 152.284 478.291 152.375V154.055ZM492.675 160.197C492.675 159.709 492.489 159.331 492.118 159.064C491.753 158.791 491.112 158.557 490.194 158.361C489.283 158.166 488.557 157.932 488.016 157.658C487.483 157.385 487.085 157.059 486.825 156.682C486.571 156.304 486.444 155.855 486.444 155.334C486.444 154.468 486.809 153.736 487.538 153.137C488.274 152.538 489.211 152.238 490.35 152.238C491.548 152.238 492.518 152.548 493.261 153.166C494.009 153.785 494.384 154.576 494.384 155.539H492.567C492.567 155.044 492.356 154.618 491.932 154.26C491.516 153.902 490.988 153.723 490.35 153.723C489.693 153.723 489.178 153.866 488.807 154.152C488.436 154.439 488.251 154.813 488.251 155.275C488.251 155.712 488.423 156.04 488.768 156.262C489.113 156.483 489.735 156.695 490.634 156.896C491.539 157.098 492.271 157.339 492.831 157.619C493.391 157.899 493.804 158.238 494.071 158.635C494.345 159.025 494.481 159.504 494.481 160.07C494.481 161.014 494.104 161.773 493.348 162.346C492.593 162.912 491.613 163.195 490.409 163.195C489.563 163.195 488.814 163.046 488.163 162.746C487.512 162.447 487.001 162.03 486.63 161.496C486.265 160.956 486.083 160.373 486.083 159.748H487.889C487.922 160.354 488.163 160.835 488.612 161.193C489.068 161.545 489.667 161.721 490.409 161.721C491.093 161.721 491.639 161.584 492.05 161.311C492.466 161.031 492.675 160.66 492.675 160.197ZM499.598 163H497.791V152.434H499.598V163ZM497.645 149.631C497.645 149.338 497.732 149.09 497.908 148.889C498.09 148.687 498.357 148.586 498.709 148.586C499.061 148.586 499.327 148.687 499.51 148.889C499.692 149.09 499.783 149.338 499.783 149.631C499.783 149.924 499.692 150.168 499.51 150.363C499.327 150.559 499.061 150.656 498.709 150.656C498.357 150.656 498.09 150.559 497.908 150.363C497.732 150.168 497.645 149.924 497.645 149.631ZM505.749 149.875V152.434H507.722V153.83H505.749V160.383C505.749 160.806 505.837 161.125 506.013 161.34C506.189 161.548 506.488 161.652 506.911 161.652C507.12 161.652 507.406 161.613 507.771 161.535V163C507.295 163.13 506.833 163.195 506.384 163.195C505.577 163.195 504.968 162.951 504.558 162.463C504.148 161.975 503.943 161.281 503.943 160.383V153.83H502.019V152.434H503.943V149.875H505.749ZM522.925 163C522.821 162.792 522.737 162.421 522.671 161.887C521.832 162.759 520.829 163.195 519.664 163.195C518.622 163.195 517.766 162.902 517.095 162.316C516.431 161.724 516.099 160.975 516.099 160.07C516.099 158.97 516.516 158.117 517.349 157.512C518.189 156.9 519.367 156.594 520.884 156.594H522.642V155.764C522.642 155.132 522.453 154.631 522.076 154.26C521.698 153.882 521.142 153.693 520.406 153.693C519.761 153.693 519.221 153.856 518.785 154.182C518.349 154.507 518.13 154.901 518.13 155.363H516.314C516.314 154.836 516.5 154.328 516.871 153.84C517.248 153.345 517.756 152.954 518.394 152.668C519.039 152.382 519.745 152.238 520.513 152.238C521.731 152.238 522.684 152.544 523.375 153.156C524.065 153.762 524.423 154.598 524.449 155.666V160.529C524.449 161.499 524.573 162.271 524.82 162.844V163H522.925ZM519.927 161.623C520.494 161.623 521.031 161.477 521.539 161.184C522.046 160.891 522.414 160.51 522.642 160.041V157.873H521.226C519.013 157.873 517.906 158.521 517.906 159.816C517.906 160.383 518.095 160.826 518.472 161.145C518.85 161.464 519.335 161.623 519.927 161.623ZM529.78 152.434L529.829 153.605C530.604 152.694 531.649 152.238 532.964 152.238C534.442 152.238 535.447 152.805 535.981 153.938C536.333 153.43 536.789 153.02 537.348 152.707C537.915 152.395 538.582 152.238 539.35 152.238C541.668 152.238 542.846 153.465 542.886 155.92V163H541.079V156.027C541.079 155.272 540.906 154.709 540.561 154.338C540.216 153.96 539.637 153.771 538.823 153.771C538.152 153.771 537.596 153.973 537.153 154.377C536.71 154.774 536.453 155.311 536.382 155.988V163H534.565V156.076C534.565 154.54 533.813 153.771 532.309 153.771C531.124 153.771 530.314 154.276 529.878 155.285V163H528.071V152.434H529.78ZM550.805 163.195C549.372 163.195 548.207 162.727 547.309 161.789C546.41 160.845 545.961 159.585 545.961 158.01V157.678C545.961 156.63 546.159 155.695 546.557 154.875C546.96 154.048 547.52 153.404 548.236 152.941C548.959 152.473 549.74 152.238 550.58 152.238C551.954 152.238 553.021 152.691 553.783 153.596C554.545 154.501 554.926 155.796 554.926 157.482V158.234H547.768C547.794 159.276 548.096 160.119 548.676 160.764C549.262 161.402 550.004 161.721 550.902 161.721C551.54 161.721 552.081 161.59 552.523 161.33C552.966 161.07 553.354 160.725 553.686 160.295L554.789 161.154C553.904 162.515 552.576 163.195 550.805 163.195ZM550.58 153.723C549.851 153.723 549.239 153.99 548.744 154.523C548.249 155.051 547.943 155.793 547.826 156.75H553.119V156.613C553.067 155.695 552.82 154.986 552.377 154.484C551.934 153.977 551.335 153.723 550.58 153.723ZM560.277 149.875V152.434H562.249V153.83H560.277V160.383C560.277 160.806 560.364 161.125 560.54 161.34C560.716 161.548 561.015 161.652 561.439 161.652C561.647 161.652 561.933 161.613 562.298 161.535V163C561.823 163.13 561.361 163.195 560.911 163.195C560.104 163.195 559.495 162.951 559.085 162.463C558.675 161.975 558.47 161.281 558.47 160.383V153.83H556.546V152.434H558.47V149.875H560.277ZM565.11 165.832L564.084 165.129C564.696 164.276 565.015 163.397 565.041 162.492V160.861H566.809V162.277C566.809 162.935 566.646 163.592 566.321 164.25C566.002 164.908 565.598 165.435 565.11 165.832ZM579.893 161.721C580.538 161.721 581.101 161.525 581.583 161.135C582.065 160.744 582.331 160.256 582.384 159.67H584.093C584.06 160.275 583.852 160.852 583.468 161.398C583.083 161.945 582.569 162.382 581.925 162.707C581.287 163.033 580.609 163.195 579.893 163.195C578.455 163.195 577.309 162.717 576.456 161.76C575.609 160.796 575.186 159.481 575.186 157.814V157.512C575.186 156.483 575.375 155.568 575.753 154.768C576.13 153.967 576.671 153.345 577.374 152.902C578.083 152.46 578.92 152.238 579.884 152.238C581.068 152.238 582.052 152.593 582.833 153.303C583.621 154.012 584.04 154.934 584.093 156.066H582.384C582.331 155.383 582.071 154.823 581.602 154.387C581.14 153.944 580.567 153.723 579.884 153.723C578.966 153.723 578.253 154.055 577.745 154.719C577.244 155.376 576.993 156.33 576.993 157.58V157.922C576.993 159.139 577.244 160.077 577.745 160.734C578.246 161.392 578.962 161.721 579.893 161.721ZM586.445 157.619C586.445 156.584 586.647 155.653 587.051 154.826C587.461 153.999 588.027 153.361 588.75 152.912C589.479 152.463 590.309 152.238 591.24 152.238C592.679 152.238 593.841 152.736 594.727 153.732C595.618 154.729 596.064 156.053 596.064 157.707V157.834C596.064 158.863 595.866 159.787 595.469 160.607C595.078 161.421 594.515 162.056 593.779 162.512C593.05 162.967 592.21 163.195 591.26 163.195C589.827 163.195 588.665 162.697 587.773 161.701C586.888 160.705 586.445 159.387 586.445 157.746V157.619ZM588.262 157.834C588.262 159.006 588.532 159.947 589.072 160.656C589.619 161.366 590.348 161.721 591.26 161.721C592.178 161.721 592.907 161.363 593.447 160.646C593.988 159.924 594.258 158.915 594.258 157.619C594.258 156.46 593.981 155.523 593.428 154.807C592.881 154.084 592.152 153.723 591.24 153.723C590.348 153.723 589.629 154.077 589.082 154.787C588.535 155.497 588.262 156.512 588.262 157.834ZM600.839 152.434L600.898 153.762C601.705 152.746 602.76 152.238 604.062 152.238C606.295 152.238 607.421 153.498 607.441 156.018V163H605.634V156.008C605.627 155.246 605.452 154.683 605.107 154.318C604.768 153.954 604.237 153.771 603.515 153.771C602.929 153.771 602.415 153.928 601.972 154.24C601.529 154.553 601.184 154.963 600.937 155.471V163H599.13V152.434H600.839ZM617.118 160.197C617.118 159.709 616.932 159.331 616.561 159.064C616.196 158.791 615.555 158.557 614.637 158.361C613.726 158.166 613 157.932 612.459 157.658C611.925 157.385 611.528 157.059 611.268 156.682C611.014 156.304 610.887 155.855 610.887 155.334C610.887 154.468 611.252 153.736 611.981 153.137C612.717 152.538 613.654 152.238 614.793 152.238C615.991 152.238 616.961 152.548 617.703 153.166C618.452 153.785 618.827 154.576 618.827 155.539H617.01C617.01 155.044 616.799 154.618 616.375 154.26C615.959 153.902 615.431 153.723 614.793 153.723C614.136 153.723 613.621 153.866 613.25 154.152C612.879 154.439 612.694 154.813 612.694 155.275C612.694 155.712 612.866 156.04 613.211 156.262C613.556 156.483 614.178 156.695 615.077 156.896C615.981 157.098 616.714 157.339 617.274 157.619C617.834 157.899 618.247 158.238 618.514 158.635C618.787 159.025 618.924 159.504 618.924 160.07C618.924 161.014 618.547 161.773 617.791 162.346C617.036 162.912 616.056 163.195 614.852 163.195C614.006 163.195 613.257 163.046 612.606 162.746C611.955 162.447 611.444 162.03 611.073 161.496C610.708 160.956 610.526 160.373 610.526 159.748H612.332C612.365 160.354 612.606 160.835 613.055 161.193C613.511 161.545 614.11 161.721 614.852 161.721C615.536 161.721 616.082 161.584 616.493 161.311C616.909 161.031 617.118 160.66 617.118 160.197ZM626.462 163.195C625.03 163.195 623.865 162.727 622.966 161.789C622.068 160.845 621.619 159.585 621.619 158.01V157.678C621.619 156.63 621.817 155.695 622.214 154.875C622.618 154.048 623.178 153.404 623.894 152.941C624.617 152.473 625.398 152.238 626.238 152.238C627.612 152.238 628.679 152.691 629.441 153.596C630.203 154.501 630.584 155.796 630.584 157.482V158.234H623.425C623.451 159.276 623.754 160.119 624.334 160.764C624.92 161.402 625.662 161.721 626.56 161.721C627.198 161.721 627.739 161.59 628.181 161.33C628.624 161.07 629.011 160.725 629.343 160.295L630.447 161.154C629.561 162.515 628.233 163.195 626.462 163.195ZM626.238 153.723C625.509 153.723 624.897 153.99 624.402 154.523C623.907 155.051 623.601 155.793 623.484 156.75H628.777V156.613C628.725 155.695 628.477 154.986 628.035 154.484C627.592 153.977 626.993 153.723 626.238 153.723ZM637.721 161.721C638.366 161.721 638.929 161.525 639.411 161.135C639.893 160.744 640.16 160.256 640.212 159.67H641.921C641.888 160.275 641.68 160.852 641.296 161.398C640.912 161.945 640.397 162.382 639.753 162.707C639.115 163.033 638.438 163.195 637.721 163.195C636.283 163.195 635.137 162.717 634.284 161.76C633.438 160.796 633.014 159.481 633.014 157.814V157.512C633.014 156.483 633.203 155.568 633.581 154.768C633.958 153.967 634.499 153.345 635.202 152.902C635.912 152.46 636.748 152.238 637.712 152.238C638.897 152.238 639.88 152.593 640.661 153.303C641.449 154.012 641.869 154.934 641.921 156.066H640.212C640.16 155.383 639.899 154.823 639.43 154.387C638.968 153.944 638.395 153.723 637.712 153.723C636.794 153.723 636.081 154.055 635.573 154.719C635.072 155.376 634.821 156.33 634.821 157.58V157.922C634.821 159.139 635.072 160.077 635.573 160.734C636.074 161.392 636.79 161.721 637.721 161.721ZM647.203 149.875V152.434H649.176V153.83H647.203V160.383C647.203 160.806 647.291 161.125 647.467 161.34C647.643 161.548 647.942 161.652 648.365 161.652C648.574 161.652 648.86 161.613 649.225 161.535V163C648.749 163.13 648.287 163.195 647.838 163.195C647.031 163.195 646.422 162.951 646.012 162.463C645.602 161.975 645.396 161.281 645.396 160.383V153.83H643.473V152.434H645.396V149.875H647.203ZM656.48 163.195C655.047 163.195 653.882 162.727 652.984 161.789C652.085 160.845 651.636 159.585 651.636 158.01V157.678C651.636 156.63 651.834 155.695 652.232 154.875C652.635 154.048 653.195 153.404 653.911 152.941C654.634 152.473 655.415 152.238 656.255 152.238C657.629 152.238 658.696 152.691 659.458 153.596C660.22 154.501 660.601 155.796 660.601 157.482V158.234H653.443C653.469 159.276 653.771 160.119 654.351 160.764C654.937 161.402 655.679 161.721 656.577 161.721C657.215 161.721 657.756 161.59 658.198 161.33C658.641 161.07 659.029 160.725 659.361 160.295L660.464 161.154C659.579 162.515 658.251 163.195 656.48 163.195ZM656.255 153.723C655.526 153.723 654.914 153.99 654.419 154.523C653.924 155.051 653.618 155.793 653.501 156.75H658.794V156.613C658.742 155.695 658.495 154.986 658.052 154.484C657.609 153.977 657.01 153.723 656.255 153.723ZM665.952 149.875V152.434H667.924V153.83H665.952V160.383C665.952 160.806 666.039 161.125 666.215 161.34C666.391 161.548 666.69 161.652 667.114 161.652C667.322 161.652 667.608 161.613 667.973 161.535V163C667.498 163.13 667.036 163.195 666.586 163.195C665.779 163.195 665.17 162.951 664.76 162.463C664.35 161.975 664.145 161.281 664.145 160.383V153.83H662.221V152.434H664.145V149.875H665.952ZM677.367 161.955C676.664 162.782 675.632 163.195 674.271 163.195C673.145 163.195 672.285 162.87 671.693 162.219C671.107 161.561 670.811 160.591 670.804 159.309V152.434H672.611V159.26C672.611 160.861 673.262 161.662 674.564 161.662C675.944 161.662 676.862 161.148 677.318 160.119V152.434H679.125V163H677.406L677.367 161.955ZM687.786 154.055C687.512 154.009 687.216 153.986 686.897 153.986C685.712 153.986 684.908 154.491 684.485 155.5V163H682.678V152.434H684.436L684.466 153.654C685.058 152.71 685.898 152.238 686.985 152.238C687.337 152.238 687.604 152.284 687.786 152.375V154.055ZM702.54 163C702.436 162.792 702.351 162.421 702.286 161.887C701.446 162.759 700.444 163.195 699.279 163.195C698.237 163.195 697.381 162.902 696.71 162.316C696.046 161.724 695.714 160.975 695.714 160.07C695.714 158.97 696.131 158.117 696.964 157.512C697.804 156.9 698.982 156.594 700.499 156.594H702.257V155.764C702.257 155.132 702.068 154.631 701.691 154.26C701.313 153.882 700.756 153.693 700.021 153.693C699.376 153.693 698.836 153.856 698.4 154.182C697.963 154.507 697.745 154.901 697.745 155.363H695.929C695.929 154.836 696.114 154.328 696.486 153.84C696.863 153.345 697.371 152.954 698.009 152.668C698.654 152.382 699.36 152.238 700.128 152.238C701.346 152.238 702.299 152.544 702.989 153.156C703.68 153.762 704.038 154.598 704.064 155.666V160.529C704.064 161.499 704.187 162.271 704.435 162.844V163H702.54ZM699.542 161.623C700.109 161.623 700.646 161.477 701.154 161.184C701.661 160.891 702.029 160.51 702.257 160.041V157.873H700.841C698.627 157.873 697.521 158.521 697.521 159.816C697.521 160.383 697.709 160.826 698.087 161.145C698.465 161.464 698.95 161.623 699.542 161.623ZM707.256 157.629C707.256 156.008 707.64 154.706 708.409 153.723C709.177 152.733 710.183 152.238 711.426 152.238C712.663 152.238 713.643 152.661 714.366 153.508V148H716.172V163H714.512L714.424 161.867C713.702 162.753 712.696 163.195 711.407 163.195C710.183 163.195 709.183 162.694 708.409 161.691C707.64 160.689 707.256 159.38 707.256 157.766V157.629ZM709.063 157.834C709.063 159.032 709.31 159.969 709.805 160.646C710.3 161.324 710.983 161.662 711.856 161.662C713.002 161.662 713.838 161.148 714.366 160.119V155.266C713.825 154.27 712.995 153.771 711.875 153.771C710.99 153.771 710.3 154.113 709.805 154.797C709.31 155.48 709.063 156.493 709.063 157.834ZM721.748 163H719.941V152.434H721.748V163ZM719.795 149.631C719.795 149.338 719.882 149.09 720.058 148.889C720.24 148.687 720.507 148.586 720.859 148.586C721.211 148.586 721.477 148.687 721.66 148.889C721.842 149.09 721.933 149.338 721.933 149.631C721.933 149.924 721.842 150.168 721.66 150.363C721.477 150.559 721.211 150.656 720.859 150.656C720.507 150.656 720.24 150.559 720.058 150.363C719.882 150.168 719.795 149.924 719.795 149.631ZM734.374 157.834C734.374 159.442 734.006 160.738 733.27 161.721C732.535 162.704 731.539 163.195 730.282 163.195C728.999 163.195 727.99 162.788 727.255 161.975V167.062H725.448V152.434H727.098L727.186 153.605C727.922 152.694 728.944 152.238 730.253 152.238C731.522 152.238 732.525 152.717 733.261 153.674C734.003 154.631 734.374 155.962 734.374 157.668V157.834ZM732.567 157.629C732.567 156.438 732.313 155.497 731.805 154.807C731.298 154.117 730.601 153.771 729.716 153.771C728.622 153.771 727.802 154.257 727.255 155.227V160.275C727.795 161.239 728.622 161.721 729.735 161.721C730.601 161.721 731.288 161.379 731.796 160.695C732.31 160.005 732.567 158.983 732.567 157.629ZM739.441 163H737.635V152.434H739.441V163ZM737.488 149.631C737.488 149.338 737.576 149.09 737.752 148.889C737.934 148.687 738.201 148.586 738.553 148.586C738.904 148.586 739.171 148.687 739.354 148.889C739.536 149.09 739.627 149.338 739.627 149.631C739.627 149.924 739.536 150.168 739.354 150.363C739.171 150.559 738.904 150.656 738.553 150.656C738.201 150.656 737.934 150.559 737.752 150.363C737.576 150.168 737.488 149.924 737.488 149.631ZM749.294 160.197C749.294 159.709 749.109 159.331 748.737 159.064C748.373 158.791 747.732 158.557 746.814 158.361C745.902 158.166 745.176 157.932 744.636 157.658C744.102 157.385 743.705 157.059 743.445 156.682C743.191 156.304 743.064 155.855 743.064 155.334C743.064 154.468 743.428 153.736 744.157 153.137C744.893 152.538 745.831 152.238 746.97 152.238C748.168 152.238 749.138 152.548 749.88 153.166C750.629 153.785 751.003 154.576 751.003 155.539H749.187C749.187 155.044 748.975 154.618 748.552 154.26C748.135 153.902 747.608 153.723 746.97 153.723C746.312 153.723 745.798 153.866 745.427 154.152C745.056 154.439 744.87 154.813 744.87 155.275C744.87 155.712 745.043 156.04 745.388 156.262C745.733 156.483 746.355 156.695 747.253 156.896C748.158 157.098 748.89 157.339 749.45 157.619C750.01 157.899 750.424 158.238 750.691 158.635C750.964 159.025 751.101 159.504 751.101 160.07C751.101 161.014 750.723 161.773 749.968 162.346C749.213 162.912 748.233 163.195 747.029 163.195C746.182 163.195 745.433 163.046 744.782 162.746C744.131 162.447 743.62 162.03 743.249 161.496C742.885 160.956 742.702 160.373 742.702 159.748H744.509C744.542 160.354 744.782 160.835 745.232 161.193C745.687 161.545 746.286 161.721 747.029 161.721C747.712 161.721 748.259 161.584 748.669 161.311C749.086 161.031 749.294 160.66 749.294 160.197ZM758.493 161.721C759.137 161.721 759.7 161.525 760.182 161.135C760.664 160.744 760.931 160.256 760.983 159.67H762.692C762.659 160.275 762.451 160.852 762.067 161.398C761.683 161.945 761.168 162.382 760.524 162.707C759.886 163.033 759.209 163.195 758.493 163.195C757.054 163.195 755.908 162.717 755.055 161.76C754.209 160.796 753.786 159.481 753.786 157.814V157.512C753.786 156.483 753.974 155.568 754.352 154.768C754.73 153.967 755.27 153.345 755.973 152.902C756.683 152.46 757.519 152.238 758.483 152.238C759.668 152.238 760.651 152.593 761.432 153.303C762.22 154.012 762.64 154.934 762.692 156.066H760.983C760.931 155.383 760.67 154.823 760.202 154.387C759.739 153.944 759.166 153.723 758.483 153.723C757.565 153.723 756.852 154.055 756.344 154.719C755.843 155.376 755.592 156.33 755.592 157.58V157.922C755.592 159.139 755.843 160.077 756.344 160.734C756.845 161.392 757.562 161.721 758.493 161.721ZM767.486 163H765.679V152.434H767.486V163ZM765.533 149.631C765.533 149.338 765.621 149.09 765.796 148.889C765.979 148.687 766.246 148.586 766.597 148.586C766.949 148.586 767.216 148.687 767.398 148.889C767.58 149.09 767.671 149.338 767.671 149.631C767.671 149.924 767.58 150.168 767.398 150.363C767.216 150.559 766.949 150.656 766.597 150.656C766.246 150.656 765.979 150.559 765.796 150.363C765.621 150.168 765.533 149.924 765.533 149.631ZM772.895 152.434L772.954 153.762C773.761 152.746 774.816 152.238 776.118 152.238C778.351 152.238 779.477 153.498 779.497 156.018V163H777.69V156.008C777.684 155.246 777.508 154.683 777.163 154.318C776.824 153.954 776.294 153.771 775.571 153.771C774.985 153.771 774.471 153.928 774.028 154.24C773.585 154.553 773.24 154.963 772.993 155.471V163H771.186V152.434H772.895ZM782.592 157.629C782.592 155.982 782.973 154.673 783.734 153.703C784.496 152.727 785.505 152.238 786.762 152.238C788.051 152.238 789.057 152.694 789.779 153.605L789.867 152.434H791.518V162.746C791.518 164.113 791.111 165.191 790.297 165.979C789.49 166.766 788.402 167.16 787.035 167.16C786.273 167.16 785.528 166.997 784.799 166.672C784.07 166.346 783.513 165.9 783.129 165.334L784.066 164.25C784.841 165.207 785.788 165.686 786.908 165.686C787.787 165.686 788.471 165.438 788.959 164.943C789.454 164.449 789.701 163.752 789.701 162.854V161.945C788.979 162.779 787.992 163.195 786.742 163.195C785.505 163.195 784.503 162.697 783.734 161.701C782.973 160.705 782.592 159.348 782.592 157.629ZM784.408 157.834C784.408 159.025 784.652 159.963 785.141 160.646C785.629 161.324 786.312 161.662 787.191 161.662C788.331 161.662 789.167 161.145 789.701 160.109V155.285C789.148 154.276 788.318 153.771 787.211 153.771C786.332 153.771 785.645 154.113 785.15 154.797C784.656 155.48 784.408 156.493 784.408 157.834ZM805.198 163.195C803.765 163.195 802.6 162.727 801.702 161.789C800.803 160.845 800.354 159.585 800.354 158.01V157.678C800.354 156.63 800.552 155.695 800.95 154.875C801.353 154.048 801.913 153.404 802.629 152.941C803.352 152.473 804.133 152.238 804.973 152.238C806.347 152.238 807.414 152.691 808.176 153.596C808.938 154.501 809.319 155.796 809.319 157.482V158.234H802.161C802.187 159.276 802.489 160.119 803.069 160.764C803.655 161.402 804.397 161.721 805.295 161.721C805.933 161.721 806.474 161.59 806.916 161.33C807.359 161.07 807.746 160.725 808.078 160.295L809.182 161.154C808.297 162.515 806.968 163.195 805.198 163.195ZM804.973 153.723C804.244 153.723 803.632 153.99 803.137 154.523C802.642 155.051 802.336 155.793 802.219 156.75H807.512V156.613C807.46 155.695 807.213 154.986 806.77 154.484C806.327 153.977 805.728 153.723 804.973 153.723ZM814.181 163H812.375V148H814.181V163ZM819.845 163H818.038V152.434H819.845V163ZM817.891 149.631C817.891 149.338 817.979 149.09 818.155 148.889C818.337 148.687 818.604 148.586 818.956 148.586C819.307 148.586 819.574 148.687 819.757 148.889C819.939 149.09 820.03 149.338 820.03 149.631C820.03 149.924 819.939 150.168 819.757 150.363C819.574 150.559 819.307 150.656 818.956 150.656C818.604 150.656 818.337 150.559 818.155 150.363C817.979 150.168 817.891 149.924 817.891 149.631ZM825.996 149.875V152.434H827.969V153.83H825.996V160.383C825.996 160.806 826.084 161.125 826.26 161.34C826.436 161.548 826.735 161.652 827.158 161.652C827.367 161.652 827.653 161.613 828.018 161.535V163C827.542 163.13 827.08 163.195 826.631 163.195C825.824 163.195 825.215 162.951 824.805 162.463C824.395 161.975 824.189 161.281 824.189 160.383V153.83H822.266V152.434H824.189V149.875H825.996ZM830.829 165.832L829.804 165.129C830.416 164.276 830.735 163.397 830.761 162.492V160.861H832.529V162.277C832.529 162.935 832.366 163.592 832.04 164.25C831.721 164.908 831.318 165.435 830.829 165.832ZM847.527 160.197C847.527 159.709 847.341 159.331 846.97 159.064C846.606 158.791 845.964 158.557 845.046 158.361C844.135 158.166 843.409 157.932 842.869 157.658C842.335 157.385 841.938 157.059 841.677 156.682C841.423 156.304 841.296 155.855 841.296 155.334C841.296 154.468 841.661 153.736 842.39 153.137C843.126 152.538 844.063 152.238 845.203 152.238C846.401 152.238 847.371 152.548 848.113 153.166C848.862 153.785 849.236 154.576 849.236 155.539H847.419C847.419 155.044 847.208 154.618 846.785 154.26C846.368 153.902 845.841 153.723 845.203 153.723C844.545 153.723 844.031 153.866 843.66 154.152C843.289 154.439 843.103 154.813 843.103 155.275C843.103 155.712 843.276 156.04 843.621 156.262C843.966 156.483 844.587 156.695 845.486 156.896C846.391 157.098 847.123 157.339 847.683 157.619C848.243 157.899 848.656 158.238 848.923 158.635C849.197 159.025 849.334 159.504 849.334 160.07C849.334 161.014 848.956 161.773 848.201 162.346C847.446 162.912 846.466 163.195 845.261 163.195C844.415 163.195 843.666 163.046 843.015 162.746C842.364 162.447 841.853 162.03 841.482 161.496C841.117 160.956 840.935 160.373 840.935 159.748H842.742C842.774 160.354 843.015 160.835 843.464 161.193C843.92 161.545 844.519 161.721 845.261 161.721C845.945 161.721 846.492 161.584 846.902 161.311C847.319 161.031 847.527 160.66 847.527 160.197ZM856.872 163.195C855.44 163.195 854.274 162.727 853.376 161.789C852.477 160.845 852.028 159.585 852.028 158.01V157.678C852.028 156.63 852.227 155.695 852.624 154.875C853.027 154.048 853.587 153.404 854.304 152.941C855.026 152.473 855.807 152.238 856.647 152.238C858.021 152.238 859.089 152.691 859.85 153.596C860.612 154.501 860.993 155.796 860.993 157.482V158.234H853.835C853.861 159.276 854.164 160.119 854.743 160.764C855.329 161.402 856.071 161.721 856.97 161.721C857.608 161.721 858.148 161.59 858.591 161.33C859.033 161.07 859.421 160.725 859.753 160.295L860.856 161.154C859.971 162.515 858.643 163.195 856.872 163.195ZM856.647 153.723C855.918 153.723 855.306 153.99 854.811 154.523C854.317 155.051 854.011 155.793 853.893 156.75H859.186V156.613C859.134 155.695 858.887 154.986 858.444 154.484C858.001 153.977 857.402 153.723 856.647 153.723ZM863.453 157.629C863.453 156.008 863.837 154.706 864.605 153.723C865.374 152.733 866.38 152.238 867.623 152.238C868.86 152.238 869.84 152.661 870.562 153.508V148H872.369V163H870.709L870.621 161.867C869.898 162.753 868.893 163.195 867.604 163.195C866.38 163.195 865.38 162.694 864.605 161.691C863.837 160.689 863.453 159.38 863.453 157.766V157.629ZM865.26 157.834C865.26 159.032 865.507 159.969 866.002 160.646C866.497 161.324 867.18 161.662 868.053 161.662C869.199 161.662 870.035 161.148 870.562 160.119V155.266C870.022 154.27 869.192 153.771 868.072 153.771C867.187 153.771 866.497 154.113 866.002 154.797C865.507 155.48 865.26 156.493 865.26 157.834ZM881.303 157.629C881.303 156.008 881.687 154.706 882.455 153.723C883.224 152.733 884.23 152.238 885.473 152.238C886.71 152.238 887.69 152.661 888.412 153.508V148H890.219V163H888.559L888.471 161.867C887.748 162.753 886.743 163.195 885.453 163.195C884.23 163.195 883.23 162.694 882.455 161.691C881.687 160.689 881.303 159.38 881.303 157.766V157.629ZM883.11 157.834C883.11 159.032 883.357 159.969 883.852 160.646C884.347 161.324 885.03 161.662 885.903 161.662C887.049 161.662 887.885 161.148 888.412 160.119V155.266C887.872 154.27 887.042 153.771 885.922 153.771C885.037 153.771 884.347 154.113 883.852 154.797C883.357 155.48 883.11 156.493 883.11 157.834ZM893.353 157.619C893.353 156.584 893.555 155.653 893.959 154.826C894.369 153.999 894.935 153.361 895.658 152.912C896.387 152.463 897.217 152.238 898.148 152.238C899.587 152.238 900.749 152.736 901.634 153.732C902.526 154.729 902.972 156.053 902.972 157.707V157.834C902.972 158.863 902.774 159.787 902.377 160.607C901.986 161.421 901.423 162.056 900.687 162.512C899.958 162.967 899.118 163.195 898.168 163.195C896.735 163.195 895.573 162.697 894.681 161.701C893.796 160.705 893.353 159.387 893.353 157.746V157.619ZM895.169 157.834C895.169 159.006 895.44 159.947 895.98 160.656C896.527 161.366 897.256 161.721 898.168 161.721C899.086 161.721 899.815 161.363 900.355 160.646C900.895 159.924 901.166 158.915 901.166 157.619C901.166 156.46 900.889 155.523 900.336 154.807C899.789 154.084 899.059 153.723 898.148 153.723C897.256 153.723 896.537 154.077 895.99 154.787C895.443 155.497 895.169 156.512 895.169 157.834ZM916.184 163.195C914.751 163.195 913.586 162.727 912.688 161.789C911.789 160.845 911.34 159.585 911.34 158.01V157.678C911.34 156.63 911.538 155.695 911.936 154.875C912.339 154.048 912.899 153.404 913.615 152.941C914.338 152.473 915.119 152.238 915.959 152.238C917.333 152.238 918.4 152.691 919.162 153.596C919.924 154.501 920.305 155.796 920.305 157.482V158.234H913.146C913.173 159.276 913.475 160.119 914.055 160.764C914.641 161.402 915.383 161.721 916.281 161.721C916.919 161.721 917.46 161.59 917.902 161.33C918.345 161.07 918.732 160.725 919.064 160.295L920.168 161.154C919.283 162.515 917.954 163.195 916.184 163.195ZM915.959 153.723C915.23 153.723 914.618 153.99 914.123 154.523C913.628 155.051 913.322 155.793 913.205 156.75H918.498V156.613C918.446 155.695 918.199 154.986 917.756 154.484C917.313 153.977 916.714 153.723 915.959 153.723ZM925.167 163H923.361V152.434H925.167V163ZM923.214 149.631C923.214 149.338 923.302 149.09 923.478 148.889C923.66 148.687 923.927 148.586 924.279 148.586C924.63 148.586 924.897 148.687 925.079 148.889C925.262 149.09 925.353 149.338 925.353 149.631C925.353 149.924 925.262 150.168 925.079 150.363C924.897 150.559 924.63 150.656 924.279 150.656C923.927 150.656 923.66 150.559 923.478 150.363C923.302 150.168 923.214 149.924 923.214 149.631ZM935.391 161.955C934.688 162.782 933.656 163.195 932.295 163.195C931.169 163.195 930.31 162.87 929.717 162.219C929.131 161.561 928.835 160.591 928.828 159.309V152.434H930.635V159.26C930.635 160.861 931.286 161.662 932.588 161.662C933.968 161.662 934.886 161.148 935.342 160.119V152.434H937.149V163H935.43L935.391 161.955ZM946.855 160.197C946.855 159.709 946.669 159.331 946.298 159.064C945.934 158.791 945.293 158.557 944.375 158.361C943.463 158.166 942.737 157.932 942.197 157.658C941.663 157.385 941.266 157.059 941.005 156.682C940.752 156.304 940.625 155.855 940.625 155.334C940.625 154.468 940.989 153.736 941.718 153.137C942.454 152.538 943.391 152.238 944.531 152.238C945.729 152.238 946.699 152.548 947.441 153.166C948.19 153.785 948.564 154.576 948.564 155.539H946.748C946.748 155.044 946.536 154.618 946.113 154.26C945.696 153.902 945.169 153.723 944.531 153.723C943.873 153.723 943.359 153.866 942.988 154.152C942.617 154.439 942.431 154.813 942.431 155.275C942.431 155.712 942.604 156.04 942.949 156.262C943.294 156.483 943.916 156.695 944.814 156.896C945.719 157.098 946.451 157.339 947.011 157.619C947.571 157.899 947.985 158.238 948.252 158.635C948.525 159.025 948.662 159.504 948.662 160.07C948.662 161.014 948.284 161.773 947.529 162.346C946.774 162.912 945.794 163.195 944.589 163.195C943.743 163.195 942.994 163.046 942.343 162.746C941.692 162.447 941.181 162.03 940.81 161.496C940.446 160.956 940.263 160.373 940.263 159.748H942.07C942.102 160.354 942.343 160.835 942.793 161.193C943.248 161.545 943.847 161.721 944.589 161.721C945.273 161.721 945.82 161.584 946.23 161.311C946.647 161.031 946.855 160.66 946.855 160.197ZM953.514 152.434L953.563 153.605C954.338 152.694 955.383 152.238 956.698 152.238C958.176 152.238 959.182 152.805 959.716 153.938C960.067 153.43 960.523 153.02 961.083 152.707C961.649 152.395 962.317 152.238 963.085 152.238C965.402 152.238 966.581 153.465 966.62 155.92V163H964.813V156.027C964.813 155.272 964.641 154.709 964.296 154.338C963.951 153.96 963.371 153.771 962.557 153.771C961.887 153.771 961.33 153.973 960.888 154.377C960.445 154.774 960.188 155.311 960.116 155.988V163H958.3V156.076C958.3 154.54 957.548 153.771 956.044 153.771C954.859 153.771 954.048 154.276 953.612 155.285V163H951.805V152.434H953.514ZM969.676 157.619C969.676 156.584 969.878 155.653 970.281 154.826C970.691 153.999 971.258 153.361 971.98 152.912C972.71 152.463 973.54 152.238 974.471 152.238C975.91 152.238 977.072 152.736 977.957 153.732C978.849 154.729 979.295 156.053 979.295 157.707V157.834C979.295 158.863 979.096 159.787 978.699 160.607C978.309 161.421 977.745 162.056 977.01 162.512C976.281 162.967 975.441 163.195 974.49 163.195C973.058 163.195 971.896 162.697 971.004 161.701C970.118 160.705 969.676 159.387 969.676 157.746V157.619ZM971.492 157.834C971.492 159.006 971.762 159.947 972.303 160.656C972.85 161.366 973.579 161.721 974.49 161.721C975.408 161.721 976.137 161.363 976.678 160.646C977.218 159.924 977.488 158.915 977.488 157.619C977.488 156.46 977.212 155.523 976.658 154.807C976.111 154.084 975.382 153.723 974.471 153.723C973.579 153.723 972.859 154.077 972.312 154.787C971.766 155.497 971.492 156.512 971.492 157.834ZM981.921 157.629C981.921 156.008 982.305 154.706 983.073 153.723C983.842 152.733 984.848 152.238 986.091 152.238C987.328 152.238 988.308 152.661 989.03 153.508V148H990.837V163H989.177L989.089 161.867C988.366 162.753 987.361 163.195 986.071 163.195C984.848 163.195 983.848 162.694 983.073 161.691C982.305 160.689 981.921 159.38 981.921 157.766V157.629ZM983.728 157.834C983.728 159.032 983.975 159.969 984.47 160.646C984.965 161.324 985.648 161.662 986.521 161.662C987.667 161.662 988.503 161.148 989.03 160.119V155.266C988.49 154.27 987.66 153.771 986.54 153.771C985.655 153.771 984.965 154.113 984.47 154.797C983.975 155.48 983.728 156.493 983.728 157.834ZM1002.66 149.875V152.434H1004.63V153.83H1002.66V160.383C1002.66 160.806 1002.75 161.125 1002.93 161.34C1003.1 161.548 1003.4 161.652 1003.82 161.652C1004.03 161.652 1004.32 161.613 1004.68 161.535V163C1004.21 163.13 1003.75 163.195 1003.3 163.195C1002.49 163.195 1001.88 162.951 1001.47 162.463C1001.06 161.975 1000.86 161.281 1000.86 160.383V153.83H998.931V152.434H1000.86V149.875H1002.66ZM1011.94 163.195C1010.51 163.195 1009.34 162.727 1008.44 161.789C1007.54 160.845 1007.09 159.585 1007.09 158.01V157.678C1007.09 156.63 1007.29 155.695 1007.69 154.875C1008.09 154.048 1008.65 153.404 1009.37 152.941C1010.09 152.473 1010.87 152.238 1011.71 152.238C1013.09 152.238 1014.16 152.691 1014.92 153.596C1015.68 154.501 1016.06 155.796 1016.06 157.482V158.234H1008.9C1008.93 159.276 1009.23 160.119 1009.81 160.764C1010.4 161.402 1011.14 161.721 1012.04 161.721C1012.67 161.721 1013.21 161.59 1013.66 161.33C1014.1 161.07 1014.49 160.725 1014.82 160.295L1015.92 161.154C1015.04 162.515 1013.71 163.195 1011.94 163.195ZM1011.71 153.723C1010.98 153.723 1010.37 153.99 1009.88 154.523C1009.38 155.051 1009.08 155.793 1008.96 156.75H1014.25V156.613C1014.2 155.695 1013.95 154.986 1013.51 154.484C1013.07 153.977 1012.47 153.723 1011.71 153.723ZM1020.66 152.434L1020.71 153.605C1021.48 152.694 1022.53 152.238 1023.84 152.238C1025.32 152.238 1026.33 152.805 1026.86 153.938C1027.21 153.43 1027.67 153.02 1028.23 152.707C1028.79 152.395 1029.46 152.238 1030.23 152.238C1032.55 152.238 1033.72 153.465 1033.76 155.92V163H1031.96V156.027C1031.96 155.272 1031.78 154.709 1031.44 154.338C1031.09 153.96 1030.51 153.771 1029.7 153.771C1029.03 153.771 1028.47 153.973 1028.03 154.377C1027.59 154.774 1027.33 155.311 1027.26 155.988V163H1025.44V156.076C1025.44 154.54 1024.69 153.771 1023.19 153.771C1022 153.771 1021.19 154.276 1020.76 155.285V163H1018.95V152.434H1020.66ZM1046.22 157.834C1046.22 159.442 1045.86 160.738 1045.12 161.721C1044.38 162.704 1043.39 163.195 1042.13 163.195C1040.85 163.195 1039.84 162.788 1039.1 161.975V167.062H1037.3V152.434H1038.95L1039.04 153.605C1039.77 152.694 1040.79 152.238 1042.1 152.238C1043.37 152.238 1044.37 152.717 1045.11 153.674C1045.85 154.631 1046.22 155.962 1046.22 157.668V157.834ZM1044.42 157.629C1044.42 156.438 1044.16 155.497 1043.66 154.807C1043.15 154.117 1042.45 153.771 1041.57 153.771C1040.47 153.771 1039.65 154.257 1039.1 155.227V160.275C1039.65 161.239 1040.47 161.721 1041.59 161.721C1042.45 161.721 1043.14 161.379 1043.65 160.695C1044.16 160.005 1044.42 158.983 1044.42 157.629ZM1048.85 157.619C1048.85 156.584 1049.05 155.653 1049.46 154.826C1049.87 153.999 1050.43 153.361 1051.15 152.912C1051.88 152.463 1052.71 152.238 1053.64 152.238C1055.08 152.238 1056.25 152.736 1057.13 153.732C1058.02 154.729 1058.47 156.053 1058.47 157.707V157.834C1058.47 158.863 1058.27 159.787 1057.87 160.607C1057.48 161.421 1056.92 162.056 1056.18 162.512C1055.45 162.967 1054.61 163.195 1053.66 163.195C1052.23 163.195 1051.07 162.697 1050.18 161.701C1049.29 160.705 1048.85 159.387 1048.85 157.746V157.619ZM1050.67 157.834C1050.67 159.006 1050.94 159.947 1051.48 160.656C1052.02 161.366 1052.75 161.721 1053.66 161.721C1054.58 161.721 1055.31 161.363 1055.85 160.646C1056.39 159.924 1056.66 158.915 1056.66 157.619C1056.66 156.46 1056.39 155.523 1055.83 154.807C1055.29 154.084 1054.56 153.723 1053.64 153.723C1052.75 153.723 1052.03 154.077 1051.49 154.787C1050.94 155.497 1050.67 156.512 1050.67 157.834ZM1066.64 154.055C1066.37 154.009 1066.07 153.986 1065.75 153.986C1064.57 153.986 1063.76 154.491 1063.34 155.5V163H1061.53V152.434H1063.29L1063.32 153.654C1063.91 152.71 1064.75 152.238 1065.84 152.238C1066.19 152.238 1066.46 152.284 1066.64 152.375V154.055ZM476.621 193H474.814V182.434H476.621V193ZM474.668 179.631C474.668 179.338 474.755 179.09 474.931 178.889C475.114 178.687 475.38 178.586 475.732 178.586C476.084 178.586 476.351 178.687 476.533 178.889C476.715 179.09 476.806 179.338 476.806 179.631C476.806 179.924 476.715 180.168 476.533 180.363C476.351 180.559 476.084 180.656 475.732 180.656C475.38 180.656 475.114 180.559 474.931 180.363C474.755 180.168 474.668 179.924 474.668 179.631ZM482.03 182.434L482.089 183.762C482.896 182.746 483.951 182.238 485.253 182.238C487.486 182.238 488.612 183.498 488.632 186.018V193H486.825V186.008C486.818 185.246 486.643 184.683 486.298 184.318C485.959 183.954 485.429 183.771 484.706 183.771C484.12 183.771 483.606 183.928 483.163 184.24C482.72 184.553 482.375 184.963 482.128 185.471V193H480.321V182.434H482.03ZM496.395 191.721C497.039 191.721 497.602 191.525 498.084 191.135C498.566 190.744 498.833 190.256 498.885 189.67H500.594C500.561 190.275 500.353 190.852 499.969 191.398C499.585 191.945 499.07 192.382 498.426 192.707C497.788 193.033 497.111 193.195 496.395 193.195C494.956 193.195 493.81 192.717 492.957 191.76C492.111 190.796 491.688 189.481 491.688 187.814V187.512C491.688 186.483 491.876 185.568 492.254 184.768C492.632 183.967 493.172 183.345 493.875 182.902C494.585 182.46 495.421 182.238 496.385 182.238C497.57 182.238 498.553 182.593 499.334 183.303C500.122 184.012 500.542 184.934 500.594 186.066H498.885C498.833 185.383 498.572 184.823 498.104 184.387C497.641 183.944 497.068 183.723 496.385 183.723C495.467 183.723 494.754 184.055 494.246 184.719C493.745 185.376 493.494 186.33 493.494 187.58V187.922C493.494 189.139 493.745 190.077 494.246 190.734C494.747 191.392 495.464 191.721 496.395 191.721ZM505.388 193H503.581V182.434H505.388V193ZM503.435 179.631C503.435 179.338 503.523 179.09 503.698 178.889C503.881 178.687 504.148 178.586 504.499 178.586C504.851 178.586 505.118 178.687 505.3 178.889C505.482 179.09 505.573 179.338 505.573 179.631C505.573 179.924 505.482 180.168 505.3 180.363C505.118 180.559 504.851 180.656 504.499 180.656C504.148 180.656 503.881 180.559 503.698 180.363C503.523 180.168 503.435 179.924 503.435 179.631ZM508.649 187.629C508.649 186.008 509.033 184.706 509.801 183.723C510.569 182.733 511.575 182.238 512.819 182.238C514.056 182.238 515.036 182.661 515.758 183.508V178H517.565V193H515.905L515.817 191.867C515.094 192.753 514.088 193.195 512.799 193.195C511.575 193.195 510.576 192.694 509.801 191.691C509.033 190.689 508.649 189.38 508.649 187.766V187.629ZM510.455 187.834C510.455 189.032 510.703 189.969 511.198 190.646C511.692 191.324 512.376 191.662 513.248 191.662C514.394 191.662 515.231 191.148 515.758 190.119V185.266C515.218 184.27 514.388 183.771 513.268 183.771C512.383 183.771 511.692 184.113 511.198 184.797C510.703 185.48 510.455 186.493 510.455 187.834ZM523.14 193H521.334V182.434H523.14V193ZM521.187 179.631C521.187 179.338 521.275 179.09 521.451 178.889C521.633 178.687 521.9 178.586 522.252 178.586C522.603 178.586 522.87 178.687 523.052 178.889C523.235 179.09 523.326 179.338 523.326 179.631C523.326 179.924 523.235 180.168 523.052 180.363C522.87 180.559 522.603 180.656 522.252 180.656C521.9 180.656 521.633 180.559 521.451 180.363C521.275 180.168 521.187 179.924 521.187 179.631ZM526.401 187.629C526.401 186.008 526.785 184.706 527.554 183.723C528.322 182.733 529.328 182.238 530.571 182.238C531.808 182.238 532.788 182.661 533.511 183.508V178H535.317V193H533.657L533.569 191.867C532.846 192.753 531.841 193.195 530.552 193.195C529.328 193.195 528.328 192.694 527.554 191.691C526.785 190.689 526.401 189.38 526.401 187.766V187.629ZM528.208 187.834C528.208 189.032 528.455 189.969 528.95 190.646C529.445 191.324 530.128 191.662 531.001 191.662C532.147 191.662 532.983 191.148 533.511 190.119V185.266C532.97 184.27 532.14 183.771 531.02 183.771C530.135 183.771 529.445 184.113 528.95 184.797C528.455 185.48 528.208 186.493 528.208 187.834ZM545.453 191.955C544.75 192.782 543.718 193.195 542.357 193.195C541.231 193.195 540.372 192.87 539.779 192.219C539.193 191.561 538.897 190.591 538.891 189.309V182.434H540.697V189.26C540.697 190.861 541.348 191.662 542.65 191.662C544.031 191.662 544.949 191.148 545.404 190.119V182.434H547.211V193H545.492L545.453 191.955ZM552.474 182.434L552.532 183.762C553.34 182.746 554.394 182.238 555.696 182.238C557.93 182.238 559.056 183.498 559.075 186.018V193H557.269V186.008C557.262 185.246 557.086 184.683 556.741 184.318C556.403 183.954 555.872 183.771 555.15 183.771C554.564 183.771 554.049 183.928 553.607 184.24C553.164 184.553 552.819 184.963 552.571 185.471V193H550.765V182.434H552.474ZM565.051 179.875V182.434H567.024V183.83H565.051V190.383C565.051 190.806 565.139 191.125 565.315 191.34C565.491 191.548 565.79 191.652 566.213 191.652C566.422 191.652 566.708 191.613 567.073 191.535V193C566.597 193.13 566.135 193.195 565.686 193.195C564.879 193.195 564.27 192.951 563.86 192.463C563.45 191.975 563.245 191.281 563.245 190.383V183.83H561.321V182.434H563.245V179.875H565.051ZM582.227 191.955C581.524 192.782 580.492 193.195 579.132 193.195C578.005 193.195 577.146 192.87 576.554 192.219C575.968 191.561 575.671 190.591 575.665 189.309V182.434H577.471V189.26C577.471 190.861 578.123 191.662 579.425 191.662C580.805 191.662 581.723 191.148 582.179 190.119V182.434H583.985V193H582.266L582.227 191.955ZM589.99 179.875V182.434H591.963V183.83H589.99V190.383C589.99 190.806 590.078 191.125 590.254 191.34C590.43 191.548 590.729 191.652 591.152 191.652C591.361 191.652 591.647 191.613 592.012 191.535V193C591.536 193.13 591.074 193.195 590.625 193.195C589.818 193.195 589.209 192.951 588.799 192.463C588.389 191.975 588.184 191.281 588.184 190.383V183.83H586.26V182.434H588.184V179.875H589.99ZM602.606 193H600.799V178H602.606V193ZM612.83 193C612.726 192.792 612.641 192.421 612.576 191.887C611.736 192.759 610.733 193.195 609.568 193.195C608.526 193.195 607.67 192.902 607 192.316C606.336 191.724 606.004 190.975 606.004 190.07C606.004 188.97 606.42 188.117 607.254 187.512C608.093 186.9 609.272 186.594 610.789 186.594H612.546V185.764C612.546 185.132 612.358 184.631 611.98 184.26C611.602 183.882 611.046 183.693 610.31 183.693C609.666 183.693 609.125 183.856 608.689 184.182C608.253 184.507 608.035 184.901 608.035 185.363H606.218C606.218 184.836 606.404 184.328 606.775 183.84C607.153 183.345 607.66 182.954 608.298 182.668C608.943 182.382 609.649 182.238 610.418 182.238C611.635 182.238 612.589 182.544 613.279 183.156C613.969 183.762 614.327 184.598 614.353 185.666V190.529C614.353 191.499 614.477 192.271 614.724 192.844V193H612.83ZM609.832 191.623C610.398 191.623 610.935 191.477 611.443 191.184C611.951 190.891 612.319 190.51 612.546 190.041V187.873H611.13C608.917 187.873 607.81 188.521 607.81 189.816C607.81 190.383 607.999 190.826 608.377 191.145C608.754 191.464 609.239 191.623 609.832 191.623ZM626.93 187.834C626.93 189.449 626.559 190.747 625.817 191.73C625.075 192.707 624.079 193.195 622.829 193.195C621.494 193.195 620.462 192.723 619.733 191.779L619.645 193H617.985V178H619.792V183.596C620.521 182.691 621.527 182.238 622.809 182.238C624.092 182.238 625.098 182.723 625.827 183.693C626.563 184.663 626.93 185.992 626.93 187.678V187.834ZM625.124 187.629C625.124 186.398 624.886 185.448 624.411 184.777C623.936 184.107 623.252 183.771 622.36 183.771C621.169 183.771 620.313 184.325 619.792 185.432V190.002C620.345 191.109 621.208 191.662 622.38 191.662C623.246 191.662 623.919 191.327 624.401 190.656C624.883 189.986 625.124 188.977 625.124 187.629ZM629.537 187.619C629.537 186.584 629.739 185.653 630.143 184.826C630.553 183.999 631.119 183.361 631.842 182.912C632.571 182.463 633.401 182.238 634.332 182.238C635.771 182.238 636.933 182.736 637.818 183.732C638.71 184.729 639.156 186.053 639.156 187.707V187.834C639.156 188.863 638.958 189.787 638.561 190.607C638.17 191.421 637.607 192.056 636.871 192.512C636.142 192.967 635.302 193.195 634.352 193.195C632.919 193.195 631.757 192.697 630.865 191.701C629.98 190.705 629.537 189.387 629.537 187.746V187.619ZM631.354 187.834C631.354 189.006 631.624 189.947 632.164 190.656C632.711 191.366 633.44 191.721 634.352 191.721C635.27 191.721 635.999 191.363 636.539 190.646C637.079 189.924 637.35 188.915 637.35 187.619C637.35 186.46 637.073 185.523 636.52 184.807C635.973 184.084 635.243 183.723 634.332 183.723C633.44 183.723 632.721 184.077 632.174 184.787C631.627 185.497 631.354 186.512 631.354 187.834ZM647.329 184.055C647.056 184.009 646.76 183.986 646.441 183.986C645.256 183.986 644.452 184.491 644.029 185.5V193H642.222V182.434H643.98L644.009 183.654C644.601 182.71 645.441 182.238 646.529 182.238C646.88 182.238 647.147 182.284 647.329 182.375V184.055ZM653.989 193.195C652.556 193.195 651.391 192.727 650.493 191.789C649.594 190.845 649.145 189.585 649.145 188.01V187.678C649.145 186.63 649.343 185.695 649.741 184.875C650.144 184.048 650.704 183.404 651.42 182.941C652.143 182.473 652.924 182.238 653.764 182.238C655.138 182.238 656.205 182.691 656.967 183.596C657.729 184.501 658.11 185.796 658.11 187.482V188.234H650.952C650.978 189.276 651.28 190.119 651.86 190.764C652.446 191.402 653.188 191.721 654.086 191.721C654.724 191.721 655.265 191.59 655.707 191.33C656.15 191.07 656.537 190.725 656.87 190.295L657.973 191.154C657.088 192.515 655.759 193.195 653.989 193.195ZM653.764 183.723C653.035 183.723 652.423 183.99 651.928 184.523C651.433 185.051 651.127 185.793 651.01 186.75H656.303V186.613C656.251 185.695 656.004 184.986 655.561 184.484C655.118 183.977 654.519 183.723 653.764 183.723ZM671.155 193.195C669.723 193.195 668.557 192.727 667.659 191.789C666.761 190.845 666.311 189.585 666.311 188.01V187.678C666.311 186.63 666.51 185.695 666.907 184.875C667.311 184.048 667.871 183.404 668.587 182.941C669.309 182.473 670.091 182.238 670.93 182.238C672.304 182.238 673.372 182.691 674.134 183.596C674.895 184.501 675.276 185.796 675.276 187.482V188.234H668.118C668.144 189.276 668.447 190.119 669.026 190.764C669.612 191.402 670.354 191.721 671.253 191.721C671.891 191.721 672.431 191.59 672.874 191.33C673.317 191.07 673.704 190.725 674.036 190.295L675.139 191.154C674.254 192.515 672.926 193.195 671.155 193.195ZM670.93 183.723C670.201 183.723 669.589 183.99 669.095 184.523C668.6 185.051 668.294 185.793 668.177 186.75H673.47V186.613C673.417 185.695 673.17 184.986 672.727 184.484C672.285 183.977 671.686 183.723 670.93 183.723ZM680.627 179.875V182.434H682.6V183.83H680.627V190.383C680.627 190.806 680.715 191.125 680.891 191.34C681.066 191.548 681.366 191.652 681.789 191.652C681.997 191.652 682.284 191.613 682.648 191.535V193C682.173 193.13 681.711 193.195 681.262 193.195C680.454 193.195 679.846 192.951 679.436 192.463C679.025 191.975 678.82 191.281 678.82 190.383V183.83H676.896V182.434H678.82V179.875H680.627ZM690.84 187.629C690.84 186.008 691.224 184.706 691.993 183.723C692.761 182.733 693.767 182.238 695.01 182.238C696.247 182.238 697.227 182.661 697.95 183.508V178H699.756V193H698.096L698.008 191.867C697.286 192.753 696.28 193.195 694.991 193.195C693.767 193.195 692.767 192.694 691.993 191.691C691.224 190.689 690.84 189.38 690.84 187.766V187.629ZM692.647 187.834C692.647 189.032 692.894 189.969 693.389 190.646C693.884 191.324 694.567 191.662 695.44 191.662C696.586 191.662 697.422 191.148 697.95 190.119V185.266C697.409 184.27 696.579 183.771 695.459 183.771C694.574 183.771 693.884 184.113 693.389 184.797C692.894 185.48 692.647 186.493 692.647 187.834ZM702.89 187.619C702.89 186.584 703.092 185.653 703.496 184.826C703.906 183.999 704.472 183.361 705.195 182.912C705.924 182.463 706.754 182.238 707.685 182.238C709.124 182.238 710.286 182.736 711.171 183.732C712.063 184.729 712.509 186.053 712.509 187.707V187.834C712.509 188.863 712.311 189.787 711.914 190.607C711.523 191.421 710.96 192.056 710.224 192.512C709.495 192.967 708.655 193.195 707.705 193.195C706.272 193.195 705.11 192.697 704.218 191.701C703.333 190.705 702.89 189.387 702.89 187.746V187.619ZM704.707 187.834C704.707 189.006 704.977 189.947 705.517 190.656C706.064 191.366 706.793 191.721 707.705 191.721C708.623 191.721 709.352 191.363 709.892 190.646C710.433 189.924 710.703 188.915 710.703 187.619C710.703 186.46 710.426 185.523 709.873 184.807C709.326 184.084 708.597 183.723 707.685 183.723C706.793 183.723 706.074 184.077 705.527 184.787C704.98 185.497 704.707 186.512 704.707 187.834ZM717.538 193H715.731V178H717.538V193ZM720.76 187.619C720.76 186.584 720.962 185.653 721.365 184.826C721.775 183.999 722.342 183.361 723.064 182.912C723.794 182.463 724.624 182.238 725.555 182.238C726.993 182.238 728.156 182.736 729.041 183.732C729.933 184.729 730.379 186.053 730.379 187.707V187.834C730.379 188.863 730.18 189.787 729.783 190.607C729.393 191.421 728.829 192.056 728.094 192.512C727.365 192.967 726.525 193.195 725.574 193.195C724.142 193.195 722.98 192.697 722.088 191.701C721.202 190.705 720.76 189.387 720.76 187.746V187.619ZM722.576 187.834C722.576 189.006 722.846 189.947 723.387 190.656C723.934 191.366 724.663 191.721 725.574 191.721C726.492 191.721 727.221 191.363 727.762 190.646C728.302 189.924 728.572 188.915 728.572 187.619C728.572 186.46 728.296 185.523 727.742 184.807C727.195 184.084 726.466 183.723 725.555 183.723C724.663 183.723 723.943 184.077 723.396 184.787C722.85 185.497 722.576 186.512 722.576 187.834ZM738.552 184.055C738.279 184.009 737.982 183.986 737.663 183.986C736.478 183.986 735.674 184.491 735.251 185.5V193H733.445V182.434H735.202L735.232 183.654C735.824 182.71 736.664 182.238 737.751 182.238C738.103 182.238 738.37 182.284 738.552 182.375V184.055ZM745.211 193.195C743.779 193.195 742.614 192.727 741.715 191.789C740.817 190.845 740.368 189.585 740.368 188.01V187.678C740.368 186.63 740.566 185.695 740.963 184.875C741.367 184.048 741.927 183.404 742.643 182.941C743.366 182.473 744.147 182.238 744.987 182.238C746.36 182.238 747.428 182.691 748.19 183.596C748.952 184.501 749.332 185.796 749.332 187.482V188.234H742.174C742.2 189.276 742.503 190.119 743.082 190.764C743.668 191.402 744.411 191.721 745.309 191.721C745.947 191.721 746.487 191.59 746.93 191.33C747.373 191.07 747.76 190.725 748.092 190.295L749.196 191.154C748.31 192.515 746.982 193.195 745.211 193.195ZM744.987 183.723C744.258 183.723 743.646 183.99 743.151 184.523C742.656 185.051 742.35 185.793 742.233 186.75H747.526V186.613C747.474 185.695 747.226 184.986 746.784 184.484C746.341 183.977 745.742 183.723 744.987 183.723ZM759.692 182.434L759.741 183.605C760.516 182.694 761.561 182.238 762.876 182.238C764.354 182.238 765.359 182.805 765.893 183.938C766.245 183.43 766.701 183.02 767.261 182.707C767.827 182.395 768.494 182.238 769.262 182.238C771.58 182.238 772.759 183.465 772.798 185.92V193H770.991V186.027C770.991 185.272 770.818 184.709 770.473 184.338C770.128 183.96 769.549 183.771 768.735 183.771C768.065 183.771 767.508 183.973 767.065 184.377C766.623 184.774 766.365 185.311 766.294 185.988V193H764.477V186.076C764.477 184.54 763.725 183.771 762.221 183.771C761.037 183.771 760.226 184.276 759.79 185.285V193H757.983V182.434H759.692ZM782.855 193C782.751 192.792 782.667 192.421 782.602 191.887C781.762 192.759 780.759 193.195 779.594 193.195C778.552 193.195 777.696 192.902 777.025 192.316C776.361 191.724 776.029 190.975 776.029 190.07C776.029 188.97 776.446 188.117 777.279 187.512C778.119 186.9 779.298 186.594 780.814 186.594H782.572V185.764C782.572 185.132 782.383 184.631 782.006 184.26C781.628 183.882 781.072 183.693 780.336 183.693C779.691 183.693 779.151 183.856 778.715 184.182C778.279 184.507 778.061 184.901 778.061 185.363H776.244C776.244 184.836 776.43 184.328 776.801 183.84C777.178 183.345 777.686 182.954 778.324 182.668C778.969 182.382 779.675 182.238 780.443 182.238C781.661 182.238 782.615 182.544 783.305 183.156C783.995 183.762 784.353 184.598 784.379 185.666V190.529C784.379 191.499 784.503 192.271 784.75 192.844V193H782.855ZM779.857 191.623C780.424 191.623 780.961 191.477 781.469 191.184C781.977 190.891 782.344 190.51 782.572 190.041V187.873H781.156C778.943 187.873 777.836 188.521 777.836 189.816C777.836 190.383 778.025 190.826 778.402 191.145C778.78 191.464 779.265 191.623 779.857 191.623ZM787.581 187.629C787.581 185.982 787.962 184.673 788.724 183.703C789.486 182.727 790.495 182.238 791.751 182.238C793.04 182.238 794.046 182.694 794.769 183.605L794.857 182.434H796.507V192.746C796.507 194.113 796.1 195.191 795.286 195.979C794.479 196.766 793.392 197.16 792.025 197.16C791.263 197.16 790.517 196.997 789.788 196.672C789.059 196.346 788.502 195.9 788.118 195.334L789.056 194.25C789.831 195.207 790.778 195.686 791.898 195.686C792.777 195.686 793.46 195.438 793.948 194.943C794.443 194.449 794.691 193.752 794.691 192.854V191.945C793.968 192.779 792.982 193.195 791.732 193.195C790.495 193.195 789.492 192.697 788.724 191.701C787.962 190.705 787.581 189.348 787.581 187.629ZM789.398 187.834C789.398 189.025 789.642 189.963 790.13 190.646C790.618 191.324 791.302 191.662 792.181 191.662C793.32 191.662 794.157 191.145 794.691 190.109V185.285C794.137 184.276 793.307 183.771 792.2 183.771C791.321 183.771 790.635 184.113 790.14 184.797C789.645 185.48 789.398 186.493 789.398 187.834ZM801.75 182.434L801.809 183.762C802.616 182.746 803.671 182.238 804.973 182.238C807.206 182.238 808.332 183.498 808.352 186.018V193H806.545V186.008C806.539 185.246 806.363 184.683 806.018 184.318C805.679 183.954 805.149 183.771 804.426 183.771C803.84 183.771 803.326 183.928 802.883 184.24C802.441 184.553 802.095 184.963 801.848 185.471V193H800.041V182.434H801.75ZM818.4 193C818.296 192.792 818.211 192.421 818.146 191.887C817.306 192.759 816.304 193.195 815.138 193.195C814.097 193.195 813.241 192.902 812.57 192.316C811.906 191.724 811.574 190.975 811.574 190.07C811.574 188.97 811.991 188.117 812.824 187.512C813.664 186.9 814.842 186.594 816.359 186.594H818.117V185.764C818.117 185.132 817.928 184.631 817.55 184.26C817.173 183.882 816.616 183.693 815.88 183.693C815.236 183.693 814.696 183.856 814.259 184.182C813.823 184.507 813.605 184.901 813.605 185.363H811.789C811.789 184.836 811.974 184.328 812.345 183.84C812.723 183.345 813.231 182.954 813.869 182.668C814.513 182.382 815.22 182.238 815.988 182.238C817.205 182.238 818.159 182.544 818.849 183.156C819.539 183.762 819.897 184.598 819.923 185.666V190.529C819.923 191.499 820.047 192.271 820.295 192.844V193H818.4ZM815.402 191.623C815.968 191.623 816.505 191.477 817.013 191.184C817.521 190.891 817.889 190.51 818.117 190.041V187.873H816.701C814.487 187.873 813.38 188.521 813.38 189.816C813.38 190.383 813.569 190.826 813.947 191.145C814.325 191.464 814.81 191.623 815.402 191.623ZM835.84 193C835.736 192.792 835.651 192.421 835.586 191.887C834.746 192.759 833.743 193.195 832.578 193.195C831.536 193.195 830.68 192.902 830.01 192.316C829.346 191.724 829.014 190.975 829.014 190.07C829.014 188.97 829.43 188.117 830.264 187.512C831.104 186.9 832.282 186.594 833.799 186.594H835.557V185.764C835.557 185.132 835.368 184.631 834.99 184.26C834.613 183.882 834.056 183.693 833.32 183.693C832.676 183.693 832.135 183.856 831.699 184.182C831.263 184.507 831.045 184.901 831.045 185.363H829.229C829.229 184.836 829.414 184.328 829.785 183.84C830.163 183.345 830.671 182.954 831.309 182.668C831.953 182.382 832.66 182.238 833.428 182.238C834.645 182.238 835.599 182.544 836.289 183.156C836.979 183.762 837.337 184.598 837.363 185.666V190.529C837.363 191.499 837.487 192.271 837.734 192.844V193H835.84ZM832.842 191.623C833.408 191.623 833.945 191.477 834.453 191.184C834.961 190.891 835.329 190.51 835.557 190.041V187.873H834.141C831.927 187.873 830.82 188.521 830.82 189.816C830.82 190.383 831.009 190.826 831.387 191.145C831.764 191.464 832.249 191.623 832.842 191.623ZM842.958 193H841.152V178H842.958V193ZM848.621 193H846.815V182.434H848.621V193ZM846.668 179.631C846.668 179.338 846.756 179.09 846.932 178.889C847.114 178.687 847.381 178.586 847.733 178.586C848.084 178.586 848.351 178.687 848.534 178.889C848.716 179.09 848.807 179.338 848.807 179.631C848.807 179.924 848.716 180.168 848.534 180.363C848.351 180.559 848.084 180.656 847.733 180.656C847.381 180.656 847.114 180.559 846.932 180.363C846.756 180.168 846.668 179.924 846.668 179.631ZM851.882 187.629C851.882 185.969 852.263 184.657 853.025 183.693C853.787 182.723 854.809 182.238 856.091 182.238C857.341 182.238 858.328 182.658 859.05 183.498L859.129 182.434H860.789V197.062H858.982V192.023C858.253 192.805 857.283 193.195 856.072 193.195C854.796 193.195 853.777 192.701 853.015 191.711C852.26 190.715 851.882 189.396 851.882 187.756V187.629ZM853.689 187.834C853.689 189.045 853.943 189.995 854.451 190.686C854.965 191.376 855.655 191.721 856.521 191.721C857.595 191.721 858.416 191.245 858.982 190.295V185.119C858.409 184.188 857.595 183.723 856.541 183.723C855.668 183.723 854.975 184.071 854.461 184.768C853.946 185.458 853.689 186.48 853.689 187.834ZM871.012 191.955C870.309 192.782 869.277 193.195 867.917 193.195C866.79 193.195 865.931 192.87 865.339 192.219C864.753 191.561 864.456 190.591 864.45 189.309V182.434H866.257V189.26C866.257 190.861 866.908 191.662 868.21 191.662C869.59 191.662 870.508 191.148 870.964 190.119V182.434H872.77V193H871.052L871.012 191.955ZM882.848 193C882.743 192.792 882.659 192.421 882.594 191.887C881.754 192.759 880.751 193.195 879.586 193.195C878.544 193.195 877.688 192.902 877.018 192.316C876.354 191.724 876.021 190.975 876.021 190.07C876.021 188.97 876.438 188.117 877.271 187.512C878.111 186.9 879.29 186.594 880.807 186.594H882.564V185.764C882.564 185.132 882.376 184.631 881.998 184.26C881.62 183.882 881.064 183.693 880.328 183.693C879.684 183.693 879.143 183.856 878.707 184.182C878.271 184.507 878.053 184.901 878.053 185.363H876.236C876.236 184.836 876.422 184.328 876.793 183.84C877.171 183.345 877.678 182.954 878.316 182.668C878.961 182.382 879.667 182.238 880.436 182.238C881.653 182.238 882.607 182.544 883.297 183.156C883.987 183.762 884.345 184.598 884.371 185.666V190.529C884.371 191.499 884.495 192.271 884.742 192.844V193H882.848ZM879.85 191.623C880.416 191.623 880.953 191.477 881.461 191.184C881.969 190.891 882.337 190.51 882.564 190.041V187.873H881.148C878.935 187.873 877.828 188.521 877.828 189.816C877.828 190.383 878.017 190.826 878.395 191.145C878.772 191.464 879.257 191.623 879.85 191.623ZM888.042 192.053C888.042 191.74 888.133 191.48 888.316 191.271C888.504 191.063 888.784 190.959 889.155 190.959C889.527 190.959 889.806 191.063 889.995 191.271C890.191 191.48 890.288 191.74 890.288 192.053C890.288 192.352 890.191 192.603 889.995 192.805C889.806 193.007 889.527 193.107 889.155 193.107C888.784 193.107 888.504 193.007 888.316 192.805C888.133 192.603 888.042 192.352 888.042 192.053Z" fill="white" fill-opacity="0.6"/>
<defs>
<linearGradient id="paint0_linear" x1="1366" y1="-59.9999" x2="437.548" y2="732.556" gradientUnits="userSpaceOnUse">
<stop stop-color="#98D0FC"/>
<stop offset="1" stop-color="#3481D7"/>
</linearGradient>
</defs>
</svg>
